<svg width="11" height="11" viewBox="0 0 11 11" fill="none" xmlns="http://www.w3.org/2000/svg">
<path opacity="0.4" d="M1.33456 4.65747H9.13198C9.32848 4.65747 9.42676 4.65747 9.4884 4.71893C9.55008 4.78039 9.55037 4.87809 9.551 5.07345C9.55155 5.23569 9.55155 5.40488 9.55155 5.58132V5.62947C9.55155 6.55241 9.55155 7.27733 9.47547 7.8433C9.39748 8.4233 9.23444 8.88344 8.87289 9.245C8.51133 9.60655 8.05115 9.76959 7.47119 9.84758C6.90522 9.9237 6.1803 9.92366 5.25736 9.92366H5.20917C4.28623 9.92366 3.56133 9.9237 2.99535 9.84758C2.41537 9.76959 1.95521 9.60655 1.59365 9.245C1.2321 8.88344 1.06904 8.4233 0.99106 7.8433C0.91497 7.27733 0.914974 6.55241 0.914978 5.62947V5.58128C0.914978 5.40492 0.914978 5.23569 0.915509 5.07345C0.916145 4.87809 0.916465 4.78039 0.978122 4.71893C1.03977 4.65747 1.13804 4.65747 1.33456 4.65747Z" fill="#525866"/>
<path fill-rule="evenodd" clip-rule="evenodd" d="M5.2089 1.28711H5.25706C6.17995 1.2871 6.90492 1.2871 7.47089 1.36319C8.05088 1.44117 8.51107 1.60422 8.87262 1.96578C9.23418 2.32734 9.39722 2.7875 9.4752 3.36748C9.4846 3.43757 9.49286 3.51009 9.5001 3.58513C9.51952 3.7867 9.52925 3.88748 9.46657 3.95651C9.40388 4.02554 9.29893 4.02554 9.08908 4.02554H1.3769C1.16704 4.02554 1.06211 4.02554 0.999412 3.95651C0.936723 3.88748 0.946438 3.7867 0.965873 3.58513C0.973106 3.51009 0.981359 3.43757 0.990784 3.36748C1.06876 2.7875 1.23182 2.32734 1.59337 1.96578C1.95493 1.60422 2.41509 1.44117 2.99507 1.36319C3.56105 1.2871 4.28597 1.2871 5.2089 1.28711ZM3.12266 2.23503C2.88998 2.23503 2.70136 2.42364 2.70136 2.65632C2.70136 2.889 2.88998 3.07761 3.12266 3.07761H3.12644C3.35912 3.07761 3.54774 2.889 3.54774 2.65632C3.54774 2.42364 3.35912 2.23503 3.12644 2.23503H3.12266ZM4.38655 2.65632C4.38655 2.42364 4.57515 2.23503 4.80783 2.23503H4.81162C5.0443 2.23503 5.23292 2.42364 5.23292 2.65632C5.23292 2.889 5.0443 3.07761 4.81162 3.07761H4.80783C4.57515 3.07761 4.38655 2.889 4.38655 2.65632Z" fill="#525866"/>
<path fill-rule="evenodd" clip-rule="evenodd" d="M3.4428 8.34384C3.4428 7.35497 4.24443 6.55333 5.23331 6.55333C6.22217 6.55333 7.02382 7.35497 7.02382 8.34384C7.02382 8.51834 7.16529 8.65981 7.33979 8.65981C7.51429 8.65981 7.65576 8.51834 7.65576 8.34384C7.65576 7.00597 6.57117 5.92139 5.23331 5.92139C3.89542 5.92139 2.81085 7.00597 2.81085 8.34384C2.81085 8.51834 2.95232 8.65981 3.12682 8.65981C3.30133 8.65981 3.4428 8.51834 3.4428 8.34384ZM5.75462 7.8481C5.87802 7.7247 5.87802 7.52463 5.75462 7.40127C5.63122 7.27788 5.43115 7.27788 5.30775 7.40127L4.71195 7.99707C4.58855 8.12047 4.58855 8.3205 4.71195 8.4439C4.83535 8.5673 5.03542 8.5673 5.15878 8.4439L5.75462 7.8481Z" fill="#525866"/>
</svg>
