<svg width="10" height="10" viewBox="0 0 10 10" fill="none" xmlns="http://www.w3.org/2000/svg">
<path opacity="0.4" d="M4.29396 1.47251C2.30323 2.00405 1.12453 4.0373 1.65519 6.01083C2.186 7.98491 4.22807 9.15907 6.21933 8.62738C7.69662 8.23293 8.72789 7.01069 8.9435 5.59893C8.97783 5.37415 9.18788 5.21976 9.41265 5.25409C9.63743 5.28842 9.79182 5.49847 9.75749 5.72325C9.49393 7.44898 8.23419 8.94167 6.43175 9.42294C4.00579 10.0707 1.50986 8.64147 0.860003 6.22465C0.209995 3.80727 1.65504 1.32485 4.08154 0.676947C6.35963 0.0686698 8.69854 1.29155 9.51406 3.44403C9.56043 3.56641 9.54586 3.70354 9.47481 3.81343C9.40376 3.92333 9.2847 3.99291 9.15407 4.00086L8.12061 4.06377C7.89365 4.07759 7.69846 3.9048 7.68464 3.67784C7.67946 3.59282 7.68464 3.50009 7.7407 3.44403L8.16503 3.0197C8.23803 2.9467 8.24784 2.83109 8.18355 2.75032C7.28965 1.62729 5.77743 1.0764 4.29396 1.47251Z" fill="#525866"/>
<path fill-rule="evenodd" clip-rule="evenodd" d="M5.23325 2.94336C5.46592 2.94336 5.65454 3.13198 5.65454 3.36466V4.87533L6.37374 5.59453C6.53827 5.75906 6.53827 6.02581 6.37374 6.19033C6.20921 6.35486 5.94246 6.35486 5.77794 6.19033L4.93535 5.34774C4.85634 5.26873 4.81195 5.16158 4.81195 5.04984V3.36466C4.81195 3.13198 5.00057 2.94336 5.23325 2.94336Z" fill="#525866"/>
</svg>
