<svg width="10" height="10" viewBox="0 0 10 10" fill="none" xmlns="http://www.w3.org/2000/svg">
<path opacity="0.3" d="M5.25735 0.620361C6.18029 0.620356 6.9052 0.620351 7.47118 0.696445C8.05116 0.774421 8.51133 0.937477 8.87288 1.29903C9.23444 1.66059 9.39749 2.12075 9.47547 2.70073C9.55156 3.26671 9.55156 3.99162 9.55155 4.91455V4.91456V4.96273V4.96274C9.55156 5.88568 9.55156 6.61059 9.47547 7.17656C9.39749 7.75655 9.23444 8.21671 8.87288 8.57826C8.51133 8.93982 8.05116 9.10288 7.47118 9.18085C6.90521 9.25695 6.18029 9.25694 5.25736 9.25694H5.25735H5.20918H5.20917C4.28624 9.25694 3.56132 9.25695 2.99535 9.18085C2.41537 9.10288 1.95521 8.93982 1.59365 8.57826C1.23209 8.21671 1.06904 7.75655 0.991062 7.17656C0.914968 6.61059 0.914972 5.88567 0.914978 4.96274V4.91456C0.914972 3.99163 0.914968 3.26671 0.991062 2.70073C1.06904 2.12075 1.23209 1.66059 1.59365 1.29903C1.95521 0.937477 2.41537 0.774421 2.99535 0.696445C3.56133 0.620351 4.28624 0.620356 5.20918 0.620361H5.25735Z" fill="#525866"/>
<path fill-rule="evenodd" clip-rule="evenodd" d="M3.12682 5.0437C3.30133 5.0437 3.4428 5.18517 3.4428 5.35967L3.4428 7.04486C3.4428 7.21937 3.30133 7.36083 3.12682 7.36083C2.95232 7.36083 2.81085 7.21937 2.81085 7.04486L2.81085 5.35967C2.81085 5.18517 2.95232 5.0437 3.12682 5.0437Z" fill="#525866"/>
<path fill-rule="evenodd" clip-rule="evenodd" d="M5.23333 2.51611C5.40784 2.51611 5.5493 2.65758 5.5493 2.83209L5.5493 7.04505C5.5493 7.21955 5.40784 7.36102 5.23333 7.36102C5.05882 7.36102 4.91736 7.21955 4.91736 7.04505L4.91736 2.83209C4.91736 2.65758 5.05882 2.51611 5.23333 2.51611Z" fill="#525866"/>
<path fill-rule="evenodd" clip-rule="evenodd" d="M7.33984 4.20117C7.51434 4.20117 7.65581 4.34264 7.65581 4.51714L7.65581 7.04492C7.65581 7.21943 7.51434 7.36089 7.33984 7.36089C7.16533 7.36089 7.02386 7.21943 7.02386 7.04492L7.02386 4.51714C7.02386 4.34264 7.16533 4.20117 7.33984 4.20117Z" fill="#525866"/>
</svg>
